<?xml version="1.0" standalone="no"?>
<!DOCTYPE svg PUBLIC "-//W3C//DTD SVG 20010904//EN"
 "http://www.w3.org/TR/2001/REC-SVG-20010904/DTD/svg10.dtd">
<svg version="1.0" xmlns="http://www.w3.org/2000/svg"
 width="640.000000pt" height="640.000000pt" viewBox="0 0 640.000000 640.000000"
 preserveAspectRatio="xMidYMid meet">
<metadata>
Created by potrace 1.11, written by Peter Selinger 2001-2013
</metadata>
<g transform="translate(0.000000,640.000000) scale(0.100000,-0.100000)"
fill="#000000" stroke="none">
<path d="M0 6125 l0 -25 3200 0 3200 0 0 25 0 25 -3200 0 -3200 0 0 -25z"/>
<path d="M2317 5753 c-4 -3 -7 -75 -7 -160 l0 -153 -1155 0 -1155 0 0 -30 0
-30 1133 0 c622 0 1142 -3 1155 -6 l22 -6 0 -314 c0 -185 -4 -315 -9 -319 -6
-3 -525 -5 -1155 -5 l-1146 0 0 -30 0 -30 1139 0 c627 0 1146 -3 1155 -6 14
-5 16 -44 16 -329 0 -285 -2 -324 -16 -329 -9 -3 -528 -6 -1155 -6 l-1139 0 0
-25 0 -25 1143 0 c876 0 1146 -3 1155 -12 8 -8 12 -62 12 -175 l0 -163 -28 0
c-15 0 -33 5 -40 12 -17 17 -226 17 -282 -1 -153 -47 -290 -143 -385 -269 -5
-7 -18 -22 -27 -33 -17 -18 -40 -19 -783 -19 l-765 0 0 -30 0 -30 754 0 c533
0 757 -3 762 -11 3 -6 1 -16 -5 -22 -15 -15 -14 -87 2 -140 13 -45 85 -127
112 -127 9 0 27 -7 40 -16 20 -13 48 -15 149 -13 82 3 129 8 138 17 6 6 20 12
29 12 25 0 135 59 200 107 61 45 146 136 160 171 l9 22 860 0 c681 0 860 -3
860 -12 0 -7 0 -239 0 -515 l-1 -503 46 0 45 0 2 513 3 512 1118 3 1117 2 0
30 0 30 -1104 0 c-607 0 -1111 3 -1120 6 -14 5 -16 43 -16 320 0 300 1 314 19
324 13 7 381 10 1120 10 l1101 0 0 25 0 25 -1104 0 c-607 0 -1111 3 -1120 6
-14 5 -16 31 -16 180 0 189 4 203 53 172 36 -24 178 -43 217 -30 18 7 46 12
61 12 47 0 170 59 266 127 62 44 111 96 156 163 l23 35 732 3 732 2 0 30 0 30
-711 0 c-390 0 -714 2 -720 5 -5 4 -5 13 1 25 18 34 11 109 -15 161 -28 56
-49 80 -85 95 -14 6 -42 19 -63 28 -49 21 -194 22 -244 1 -19 -8 -44 -15 -54
-15 -11 0 -27 -4 -37 -9 -9 -5 -43 -22 -75 -37 -31 -15 -62 -33 -68 -41 -7 -7
-17 -13 -23 -13 -16 0 -166 -157 -166 -175 0 -7 -4 -16 -9 -19 -5 -4 -395 -6
-867 -6 -683 0 -859 2 -866 12 -11 18 -10 600 2 618 8 13 244 15 2005 18
l1995 2 0 30 0 30 -2002 2 -2003 3 -2 140 c-1 77 -2 148 -2 158 -1 13 -9 17
-34 17 -19 0 -37 -3 -40 -7z m1753 -1395 c3 -169 3 -317 0 -330 l-6 -23 -819
-2 c-506 -2 -826 1 -835 7 -13 8 -15 57 -18 319 -2 274 -1 311 13 325 15 15
92 16 838 14 l822 -3 5 -307z m-12 -417 c10 -6 13 -76 13 -321 0 -265 -2 -315
-15 -322 -8 -4 -385 -7 -837 -6 l-823 3 -4 311 c-3 279 -2 313 13 327 15 16
86 17 828 17 447 0 818 -4 825 -9z"/>
<path d="M4390 1970 c-8 -5 -25 -10 -37 -10 -12 0 -39 -7 -60 -16 -21 -9 -49
-22 -63 -28 -63 -27 -139 -84 -212 -158 -43 -44 -78 -86 -78 -93 0 -7 -7 -18
-15 -25 -8 -7 -15 -21 -15 -31 0 -11 -4 -19 -9 -19 -5 0 -12 -13 -16 -30 -4
-16 -11 -32 -16 -35 -5 -4 -9 -19 -9 -34 0 -15 -5 -32 -12 -39 -17 -17 -18
-336 0 -353 6 -7 12 -20 12 -29 0 -31 56 -147 101 -210 42 -59 112 -128 179
-178 82 -61 276 -122 387 -122 57 0 198 25 225 40 10 6 25 10 34 10 48 0 195
101 279 192 91 98 142 208 167 353 12 73 4 293 -11 308 -6 6 -11 19 -11 28 0
10 -6 30 -14 46 -8 15 -20 41 -28 58 -24 54 -97 151 -146 196 -73 65 -96 85
-112 92 -8 4 -22 11 -30 16 -35 22 -118 55 -160 64 -64 14 -312 19 -330 7z
m330 -68 c109 -36 173 -75 265 -164 64 -61 89 -95 122 -160 52 -105 59 -126
74 -221 10 -63 9 -96 -1 -165 -7 -48 -17 -91 -21 -97 -5 -5 -9 -17 -9 -27 0
-16 -21 -59 -77 -161 -31 -56 -206 -207 -239 -207 -4 0 -15 -6 -23 -13 -9 -7
-36 -19 -61 -26 -25 -7 -56 -18 -70 -23 -37 -15 -199 -21 -245 -9 -22 5 -57
14 -77 19 -125 32 -276 141 -353 254 -38 55 -85 150 -85 170 0 9 -4 20 -10 23
-5 3 -10 23 -10 43 0 20 -5 57 -11 82 -11 46 6 215 23 235 4 5 8 16 8 25 0 22
55 125 96 182 39 52 153 158 171 158 6 0 13 4 15 8 5 13 133 72 155 72 10 0
23 4 29 9 21 21 262 16 334 -7z"/>
<path d="M4435 1768 c-98 -25 -180 -91 -204 -166 -17 -51 -12 -57 50 -65 47
-6 69 4 69 30 0 18 41 73 54 73 5 0 17 7 27 16 27 25 169 22 212 -5 80 -49
102 -142 52 -221 -38 -60 -86 -80 -195 -80 l-91 0 3 -52 3 -53 95 -3 c78 -2
104 -7 145 -27 73 -37 90 -65 90 -151 0 -61 -4 -75 -26 -105 -43 -56 -101 -80
-193 -80 -44 0 -84 5 -89 10 -6 6 -19 11 -28 11 -20 0 -109 96 -109 117 0 13
-9 15 -46 9 -26 -3 -52 -10 -59 -16 -13 -11 -8 -70 6 -70 5 0 9 -6 9 -12 0
-24 65 -86 115 -111 63 -31 194 -50 250 -37 22 5 54 10 72 10 32 0 110 37 147
69 35 31 57 71 73 132 13 53 14 70 3 118 -7 31 -19 63 -27 72 -7 8 -13 19 -13
22 0 19 -67 67 -112 81 -19 6 -25 26 -8 26 16 0 100 81 100 95 0 8 5 15 11 17
19 6 16 178 -3 219 -51 106 -228 165 -383 127z"/>
<path d="M1820 1840 c-82 -31 -95 -38 -130 -73 -58 -57 -129 -224 -103 -240 4
-3 32 -6 62 -8 l54 -4 17 45 c8 25 22 56 29 70 20 38 73 90 91 90 9 0 22 6 29
13 8 8 43 12 100 12 73 0 95 -4 135 -25 81 -41 111 -99 99 -190 -5 -37 -16
-54 -73 -111 -37 -37 -87 -80 -111 -95 -24 -16 -46 -31 -49 -34 -3 -3 -37 -27
-77 -53 -104 -69 -253 -220 -253 -256 0 -6 -4 -11 -10 -11 -5 0 -10 -8 -10
-17 0 -10 -7 -27 -15 -37 -8 -11 -15 -29 -15 -41 0 -12 -4 -25 -9 -30 -11 -12
-18 -116 -9 -130 4 -6 144 -9 398 -7 l391 2 -3 57 -3 57 -301 -3 c-210 -2
-308 1 -323 8 -21 12 -21 15 11 71 4 8 12 25 17 37 20 44 120 138 234 219 64
46 121 84 126 84 5 0 11 3 13 8 2 4 23 23 48 42 111 87 160 173 160 283 0 67
-24 132 -68 183 -24 28 -94 66 -161 87 -71 23 -228 21 -291 -3z"/>
<path d="M3800 345 l0 -85 728 0 c401 0 731 2 733 4 2 2 3 41 1 85 l-4 81
-729 0 -729 0 0 -85z"/>
</g>
</svg>
